<svg xmlns="http://www.w3.org/2000/svg" viewBox="0 0 1024 1024">
  <rect x="32" y="32" width="960" height="960" rx="220" fill="#0b0c0d"/>
  <path d="m270 420-32-250 212 130Zm484 0 32-250-212 130Z" fill="#f3c74f"/>
  <path d="m292 326-25-106 123 78Zm440 0 25-106-123 78Z" fill="#e8917f"/>
  <ellipse cx="512" cy="524" rx="298" ry="274" fill="#f3c74f"/>
  <path d="m430 270 56-44 20 57m12 0 20-57 56 44" fill="#f3c74f"/>
  <ellipse cx="390" cy="502" rx="36" ry="48" fill="#17130c"/>
  <ellipse cx="634" cy="502" rx="36" ry="48" fill="#17130c"/>
  <circle cx="383" cy="477" r="9" fill="#fff7df"/>
  <circle cx="627" cy="477" r="9" fill="#fff7df"/>
  <ellipse cx="332" cy="607" rx="54" ry="25" fill="#e8917f"/>
  <ellipse cx="692" cy="607" rx="54" ry="25" fill="#e8917f"/>
  <path d="m484 565 28 23 28-23-28-18Z" fill="#17130c"/>
  <path d="M512 588c-3 48-52 68-87 32m87-32c3 48 52 68 87 32" fill="none" stroke="#17130c" stroke-width="24" stroke-linecap="round"/>
  <path d="M350 574 250 564m110 54-100 14m414-58 100-10m-110 54 100 14" fill="none" stroke="#17130c" stroke-width="12" stroke-linecap="round" opacity=".7"/>
  <rect x="330" y="742" width="162" height="194" rx="80" fill="#f3c74f"/>
  <rect x="532" y="742" width="162" height="194" rx="80" fill="#f3c74f"/>
  <path d="M370 874v44m41-44v44m41-44v44m120-44v44m41-44v44m41-44v44" stroke="#17130c" stroke-width="14" stroke-linecap="round" opacity=".45"/>
</svg>
